<mxfile host="65bd71144e">
    <diagram id="ptuTOofyhcP_B6WzUHz2" name="Page-1">
        <mxGraphModel dx="1039" dy="410" grid="1" gridSize="10" guides="1" tooltips="1" connect="1" arrows="1" fold="1" page="1" pageScale="1" pageWidth="850" pageHeight="1100" math="0" shadow="0">
            <root>
                <mxCell id="0"/>
                <mxCell id="1" parent="0"/>
                <mxCell id="TKIbEgWIB_U1afzhrwWQ-10" style="edgeStyle=orthogonalEdgeStyle;rounded=0;orthogonalLoop=1;jettySize=auto;html=1;exitX=0.5;exitY=1;exitDx=0;exitDy=0;entryX=0.5;entryY=0;entryDx=0;entryDy=0;" parent="1" source="TKIbEgWIB_U1afzhrwWQ-2" target="TKIbEgWIB_U1afzhrwWQ-3" edge="1">
                    <mxGeometry relative="1" as="geometry"/>
                </mxCell>
                <mxCell id="TKIbEgWIB_U1afzhrwWQ-2" value="app.js" style="rounded=1;whiteSpace=wrap;html=1;" parent="1" vertex="1">
                    <mxGeometry x="110" y="40" width="90" height="50" as="geometry"/>
                </mxCell>
                <mxCell id="TKIbEgWIB_U1afzhrwWQ-11" style="edgeStyle=orthogonalEdgeStyle;rounded=0;orthogonalLoop=1;jettySize=auto;html=1;exitX=0.5;exitY=1;exitDx=0;exitDy=0;entryX=0.5;entryY=0;entryDx=0;entryDy=0;" parent="1" source="TKIbEgWIB_U1afzhrwWQ-3" target="TKIbEgWIB_U1afzhrwWQ-4" edge="1">
                    <mxGeometry relative="1" as="geometry"/>
                </mxCell>
                <mxCell id="TKIbEgWIB_U1afzhrwWQ-3" value="middleware.js" style="rounded=1;whiteSpace=wrap;html=1;" parent="1" vertex="1">
                    <mxGeometry x="110" y="120" width="90" height="50" as="geometry"/>
                </mxCell>
                <mxCell id="TKIbEgWIB_U1afzhrwWQ-12" style="edgeStyle=orthogonalEdgeStyle;rounded=0;orthogonalLoop=1;jettySize=auto;html=1;exitX=0.5;exitY=1;exitDx=0;exitDy=0;entryX=0.5;entryY=0;entryDx=0;entryDy=0;" parent="1" source="TKIbEgWIB_U1afzhrwWQ-4" target="TKIbEgWIB_U1afzhrwWQ-6" edge="1">
                    <mxGeometry relative="1" as="geometry"/>
                </mxCell>
                <mxCell id="TKIbEgWIB_U1afzhrwWQ-4" value="controller.js" style="rounded=1;whiteSpace=wrap;html=1;" parent="1" vertex="1">
                    <mxGeometry x="110" y="200" width="90" height="50" as="geometry"/>
                </mxCell>
                <mxCell id="TKIbEgWIB_U1afzhrwWQ-13" style="edgeStyle=orthogonalEdgeStyle;rounded=0;orthogonalLoop=1;jettySize=auto;html=1;exitX=0.5;exitY=1;exitDx=0;exitDy=0;entryX=0.5;entryY=0;entryDx=0;entryDy=0;" parent="1" source="TKIbEgWIB_U1afzhrwWQ-6" target="TKIbEgWIB_U1afzhrwWQ-7" edge="1">
                    <mxGeometry relative="1" as="geometry"/>
                </mxCell>
                <mxCell id="TKIbEgWIB_U1afzhrwWQ-6" value="services.js" style="rounded=1;whiteSpace=wrap;html=1;" parent="1" vertex="1">
                    <mxGeometry x="110" y="280" width="90" height="50" as="geometry"/>
                </mxCell>
                <mxCell id="TKIbEgWIB_U1afzhrwWQ-14" style="edgeStyle=orthogonalEdgeStyle;rounded=0;orthogonalLoop=1;jettySize=auto;html=1;exitX=0.5;exitY=1;exitDx=0;exitDy=0;entryX=0.5;entryY=0;entryDx=0;entryDy=0;" parent="1" source="TKIbEgWIB_U1afzhrwWQ-7" target="TKIbEgWIB_U1afzhrwWQ-8" edge="1">
                    <mxGeometry relative="1" as="geometry"/>
                </mxCell>
                <mxCell id="TKIbEgWIB_U1afzhrwWQ-7" value="model.js" style="rounded=1;whiteSpace=wrap;html=1;" parent="1" vertex="1">
                    <mxGeometry x="110" y="360" width="90" height="50" as="geometry"/>
                </mxCell>
                <mxCell id="TKIbEgWIB_U1afzhrwWQ-8" value="DBModel.js" style="rounded=1;whiteSpace=wrap;html=1;" parent="1" vertex="1">
                    <mxGeometry x="110" y="440" width="90" height="50" as="geometry"/>
                </mxCell>
                <mxCell id="TKIbEgWIB_U1afzhrwWQ-18" value="&amp;nbsp;Initializes Prometheus metrics for API latencies, same middleware can be used used for auth and other things and fire up background tasks, if any configured" style="text;whiteSpace=wrap;html=1;align=center;fillColor=default;" parent="1" vertex="1">
                    <mxGeometry x="270" y="120" width="560" height="50" as="geometry"/>
                </mxCell>
                <mxCell id="TKIbEgWIB_U1afzhrwWQ-20" value="&lt;span style=&quot;text-align: left;&quot;&gt;Initializes express server, swagger docs, request, response validation, kick-off all the database connections, API routes, and fire up background tasks, if any configured&lt;/span&gt;" style="text;whiteSpace=wrap;html=1;align=center;fillColor=default;" parent="1" vertex="1">
                    <mxGeometry x="270" y="40" width="560" height="50" as="geometry"/>
                </mxCell>
                <mxCell id="TKIbEgWIB_U1afzhrwWQ-21" value="Request controller, every API end point has it own handler in this file" style="text;whiteSpace=wrap;html=1;align=center;fillColor=default;" parent="1" vertex="1">
                    <mxGeometry x="270" y="200" width="560" height="50" as="geometry"/>
                </mxCell>
                <mxCell id="TKIbEgWIB_U1afzhrwWQ-23" value="This is placeholder where all the business logic sits in. This module can be used to communicate with external services" style="text;whiteSpace=wrap;html=1;align=center;fillColor=default;" parent="1" vertex="1">
                    <mxGeometry x="270" y="280" width="560" height="50" as="geometry"/>
                </mxCell>
                <mxCell id="TKIbEgWIB_U1afzhrwWQ-24" value="This module provides a way to use caching if you want to use it in your service. Add any caching logic to this module" style="text;whiteSpace=wrap;html=1;align=center;fillColor=default;" parent="1" vertex="1">
                    <mxGeometry x="270" y="360" width="560" height="50" as="geometry"/>
                </mxCell>
                <mxCell id="TKIbEgWIB_U1afzhrwWQ-26" value="Here you can find all your schema and database queries" style="text;whiteSpace=wrap;html=1;align=center;fillColor=default;" parent="1" vertex="1">
                    <mxGeometry x="270" y="440" width="560" height="50" as="geometry"/>
                </mxCell>
            </root>
        </mxGraphModel>
    </diagram>
</mxfile>